<svg xmlns="http://www.w3.org/2000/svg" viewBox="0 0 160 55"><g fill="#e52236"><path d="M13.431 21.217h5.142l3.374 11.681 3.397-11.681h4.468l-5.445 16.637h-5.422l-5.514-16.637zM40.027 21.217h4.817v16.637h-4.817V21.217zM56.362 21.217h11.495v3.677h-6.749v2.862h5.376v3.397h-5.376v3.025h7.121v3.676H56.362V21.217zM78.816 21.217h5.376l5.328 9.378v-9.378h4.165v16.637h-4.607l-6.073-10.447v10.447h-4.189V21.217zM105.134 21.217h5.375l5.328 9.378v-9.378h4.166v16.637h-4.608l-6.073-10.447v10.447h-4.188V21.217zM136.384 31.478h3.653l-1.815-6.399-1.838 6.399zm-.931-10.261h6.166l5.282 16.637h-5.049l-.884-3.095h-5.515l-.884 3.095h-4.444l5.328-16.637zM0 50.684v-.096c0-2.528 1.693-4.352 4.006-4.352 1.777 0 3.279.942 3.458 2.79H6.438c-.215-1.3-.966-1.967-2.42-1.967-1.765 0-2.945 1.371-2.945 3.517v.095c0 2.17 1.097 3.481 2.933 3.481 1.395 0 2.361-.704 2.575-2.087h.966C7.249 54.035 5.89 55 3.982 55 1.514 55 0 53.307 0 50.684zM18.119 50.648v-.095c0-1.908-1.121-3.458-3.088-3.458-1.979 0-3.124 1.454-3.124 3.481v.095c0 2.063 1.371 3.469 3.148 3.469 1.895.001 3.064-1.429 3.064-3.492zm-7.285.036v-.096c0-2.42 1.693-4.328 4.197-4.328s4.161 1.908 4.161 4.304v.096c0 2.408-1.657 4.34-4.137 4.34-2.516 0-4.221-1.931-4.221-4.316zM23.051 46.368h1.347l4.149 7.046v-7.046h.99v8.525h-1.192l-4.304-7.309v7.309h-.99v-8.525zM33.098 46.368h1.026l2.539 7.523 2.54-7.523h.977l-2.945 8.525h-1.24l-2.897-8.525zM43.742 46.368h4.972v.846h-3.935v2.898h3.172v.847h-3.172v3.087h4.149v.847h-5.186v-8.525zM52.622 46.368h1.347l4.149 7.046v-7.046h.989v8.525h-1.192l-4.304-7.309v7.309h-.989v-8.525zM65.137 47.214h-2.48v-.846h5.997v.846h-2.48v7.679h-1.037v-7.679zM72.264 46.368h1.037v8.525h-1.037v-8.525zM84.507 50.648v-.095c0-1.908-1.121-3.458-3.088-3.458-1.979 0-3.124 1.454-3.124 3.481v.095c0 2.063 1.371 3.469 3.148 3.469 1.895.001 3.064-1.429 3.064-3.492zm-7.285.036v-.096c0-2.42 1.693-4.328 4.197-4.328s4.161 1.908 4.161 4.304v.096c0 2.408-1.657 4.34-4.137 4.34-2.516 0-4.221-1.931-4.221-4.316zM89.439 46.368h1.347l4.149 7.046v-7.046h.99v8.525h-1.193l-4.304-7.309v7.309h-.989v-8.525zM108.331 54.082c1.24 0 1.812-.548 1.812-1.586v-.048c0-1.049-.584-1.55-1.955-1.55h-1.741v3.184h1.884zm-.334-3.994c1.252 0 1.729-.453 1.729-1.502v-.048c0-.966-.56-1.359-1.753-1.359h-1.526v2.909h1.55zm-2.563-3.72h2.563c1.586 0 2.742.524 2.742 2.206v.048c0 .775-.31 1.467-1.288 1.8 1.24.298 1.705.93 1.705 2.039v.048c0 1.609-1.097 2.384-2.802 2.384h-2.921v-8.525h.001zM114.909 51.781v-5.413h1.038v5.293c0 1.788.632 2.48 2.05 2.48 1.359 0 2.17-.548 2.17-2.635v-5.139h1.037v5.282c0 2.074-1.037 3.35-3.231 3.35-1.955.001-3.064-1.144-3.064-3.218zM128.045 50.362c1.216 0 1.872-.524 1.872-1.574v-.048c0-1.156-.715-1.538-1.872-1.538h-1.597v3.159h1.597v.001zm-2.635-3.994h2.563c1.633 0 2.981.668 2.981 2.372v.048c0 1.407-.942 2.099-2.11 2.325l2.611 3.78h-1.157l-2.539-3.708h-1.311v3.708h-1.037v-8.525h-.001zM135.028 46.368H140v.846h-3.934v2.898h3.171v.847h-3.171v3.087h4.148v.847h-5.186v-8.525zM145.351 51.614h2.957l-1.479-4.387-1.478 4.387zm.846-5.246h1.359l2.885 8.525h-1.025l-.834-2.456h-3.517l-.823 2.456h-.977l2.932-8.525zM153.705 51.781v-5.413h1.038v5.293c0 1.788.632 2.48 2.051 2.48 1.359 0 2.17-.548 2.17-2.635v-5.139H160v5.282c0 2.074-1.037 3.35-3.231 3.35-1.955.001-3.064-1.144-3.064-3.218z"/></g></svg>